<svg id="Layer_1" data-name="Layer 1" xmlns="http://www.w3.org/2000/svg" viewBox="0 0 122.88 122.88"><title>contact</title><path d="M61.44,0A61.46,61.46,0,1,1,18,18,61.21,61.21,0,0,1,61.44,0Zm2.13,48.65a2.43,2.43,0,0,1-.89-.27,2.38,2.38,0,0,1-.71-.59h0a2.32,2.32,0,0,1-.4-.76v0a2.37,2.37,0,0,1-.1-.84l0-.19a2.33,2.33,0,0,1,.28-.83,2.45,2.45,0,0,1,.57-.67h0a2.43,2.43,0,0,1,.76-.41h0a2.14,2.14,0,0,1,.84-.1h.17a19.13,19.13,0,0,1,2.71.49,15.84,15.84,0,0,1,2.49.85l0,0a13.59,13.59,0,0,1,4.19,2.83,13.71,13.71,0,0,1,1.61,1.94,14.42,14.42,0,0,1,1.25,2.25v0a15.18,15.18,0,0,1,.85,2.46,20.29,20.29,0,0,1,.47,2.74,2.34,2.34,0,0,1-.51,1.73l0,0a2.28,2.28,0,0,1-.7.57,2.33,2.33,0,0,1-.88.28h0a2.5,2.5,0,0,1-.87-.09,2.48,2.48,0,0,1-.82-.43l0,0a2.53,2.53,0,0,1-.57-.69A2.43,2.43,0,0,1,73,58h0a14.54,14.54,0,0,0-.34-2,10.81,10.81,0,0,0-.6-1.77,9.06,9.06,0,0,0-1.89-2.81,8.82,8.82,0,0,0-1.29-1.05h0a9.55,9.55,0,0,0-1.52-.82h0a11.74,11.74,0,0,0-1.76-.6,14.28,14.28,0,0,0-2-.35Zm2.5-10.79h-.14a2.24,2.24,0,0,1-.82-.25h0a2.45,2.45,0,0,1-.66-.52l0,0A2.43,2.43,0,0,1,64,36.3a2.21,2.21,0,0,1-.13-.89v-.18a2.39,2.39,0,0,1,.24-.81l0,0a2.43,2.43,0,0,1,.51-.67l0,0a2.34,2.34,0,0,1,.77-.44,2.29,2.29,0,0,1,.91-.13,31.84,31.84,0,0,1,4.75.64,25.34,25.34,0,0,1,4.25,1.29,20.69,20.69,0,0,1,3.73,2,19,19,0,0,1,5.65,5.83,21.11,21.11,0,0,1,1.84,3.79,25.86,25.86,0,0,1,1.15,4.29,32.36,32.36,0,0,1,.48,4.77v.09a2.14,2.14,0,0,1-.16.87v0a2.38,2.38,0,0,1-2.11,1.47h-.11a2.38,2.38,0,0,1-.85-.17,2.29,2.29,0,0,1-1.28-1.22,2.28,2.28,0,0,1-.21-.9,27.39,27.39,0,0,0-.39-4,20.92,20.92,0,0,0-.92-3.51,16.63,16.63,0,0,0-1.42-3,13.9,13.9,0,0,0-1.92-2.48,14.08,14.08,0,0,0-2.41-2,16.55,16.55,0,0,0-2.93-1.52h0a19.49,19.49,0,0,0-3.42-1,27.9,27.9,0,0,0-3.92-.52Zm-20,22.22a46,46,0,0,0,6.77,9.48,38.78,38.78,0,0,0,10.72,7.91,1.13,1.13,0,0,0,.93,0,3.91,3.91,0,0,0,1.29-.94A15.58,15.58,0,0,0,67,75.14c1.72-2.27,3.85-5.08,6.86-3.68l.19.1,10,5.78.1.06a4.55,4.55,0,0,1,1.89,3.91,10.51,10.51,0,0,1-1.48,5,10.12,10.12,0,0,1-4.83,4.27,21.81,21.81,0,0,1-6,1.62,20,20,0,0,1-9.1-.76A40.22,40.22,0,0,1,55.55,87l-.24-.16c-1.49-.92-3.09-1.92-4.67-3.09A58.44,58.44,0,0,1,35.17,66.2c-3.21-5.81-5-12.08-4-18.05a13,13,0,0,1,4.38-8.23,11.8,11.8,0,0,1,8.74-2.33,1.25,1.25,0,0,1,1,.65l6.44,10.88a3.41,3.41,0,0,1,.54,3.65,7.12,7.12,0,0,1-2.46,2.76c-.35.29-.76.59-1.19.91-1.45,1-3.08,2.25-2.52,3.67l0,0ZM97.86,25A51.5,51.5,0,1,0,113,61.44,51.31,51.31,0,0,0,97.86,25Z"/></svg>