<svg xmlns="http://www.w3.org/2000/svg" xmlns:xlink="http://www.w3.org/1999/xlink" width="500" zoomAndPan="magnify" viewBox="0 0 375 374.999991" height="500" preserveAspectRatio="xMidYMid meet" version="1.0"><defs><g/><clipPath id="a915435683"><path d="M 144.789062 92.574219 L 230.289062 92.574219 L 230.289062 214.824219 L 144.789062 214.824219 Z M 144.789062 92.574219 " clip-rule="nonzero"/></clipPath><clipPath id="f3e109e03a"><path d="M 170.40625 140.539062 L 204.90625 140.539062 L 204.90625 202.789062 L 170.40625 202.789062 Z M 170.40625 140.539062 " clip-rule="nonzero"/></clipPath></defs><rect x="-37.5" width="450" fill="#ffffff" y="-37.499999" height="449.999989" fill-opacity="1"/><rect x="-37.5" width="450" fill="#ffffff" y="-37.499999" height="449.999989" fill-opacity="1"/><rect x="-37.5" width="450" fill="#000000" y="-37.499999" height="449.999989" fill-opacity="1"/><g clip-path="url(#a915435683)"><path fill="#ffffff" d="M 224.539062 123.804688 L 207.4375 123.804688 L 207.4375 111.582031 C 207.4375 111.140625 207.585938 103.628906 202.425781 98.179688 C 198.886719 94.792969 193.875 92.878906 187.539062 92.878906 C 181.199219 92.878906 176.1875 94.644531 172.648438 98.324219 C 167.488281 103.773438 167.488281 111.140625 167.636719 111.726562 L 167.636719 123.953125 L 150.535156 123.953125 L 144.789062 214.523438 L 230.289062 214.523438 Z M 169.109375 123.804688 L 169.109375 111.433594 C 169.109375 110.550781 169.257812 103.921875 173.828125 99.355469 C 176.921875 96.117188 181.640625 94.351562 187.539062 94.351562 C 193.433594 94.351562 198.152344 95.96875 201.246094 99.355469 C 205.816406 104.070312 205.964844 110.550781 205.964844 111.433594 L 205.964844 123.804688 L 187.539062 123.804688 C 187.539062 123.804688 169.109375 123.804688 169.109375 123.804688 Z M 169.109375 123.804688 " fill-opacity="1" fill-rule="nonzero"/></g><g clip-path="url(#f3e109e03a)"><path fill="#000000" d="M 175.019531 140.546875 C 172.652344 140.546875 170.746094 142.832031 170.746094 145.671875 L 170.746094 151.628906 C 170.550781 151.667969 170.410156 151.835938 170.410156 152.039062 L 170.410156 153.960938 C 170.410156 154.167969 170.550781 154.335938 170.746094 154.375 L 170.746094 156.449219 C 170.550781 156.488281 170.410156 156.65625 170.410156 156.859375 L 170.410156 160.082031 C 170.410156 160.285156 170.550781 160.453125 170.746094 160.492188 L 170.746094 161.886719 C 170.550781 161.925781 170.410156 162.09375 170.410156 162.296875 L 170.410156 165.519531 C 170.410156 165.722656 170.550781 165.894531 170.746094 165.933594 L 170.746094 197.664062 C 170.746094 200.5 172.652344 202.789062 175.019531 202.789062 L 200.128906 202.789062 C 202.5 202.789062 204.40625 200.503906 204.40625 197.664062 L 204.40625 160.492188 C 204.429688 160.5 204.457031 160.5 204.484375 160.5 C 204.71875 160.5 204.910156 160.3125 204.910156 160.082031 L 204.910156 156.859375 C 204.910156 156.625 204.71875 156.4375 204.484375 156.4375 C 204.457031 156.4375 204.429688 156.441406 204.40625 156.445312 L 204.40625 145.671875 C 204.40625 142.832031 202.5 140.546875 200.128906 140.546875 Z M 187.574219 141.835938 C 187.710938 141.835938 187.828125 141.882812 187.925781 141.980469 C 188.023438 142.074219 188.070312 142.191406 188.070312 142.328125 C 188.070312 142.464844 188.023438 142.578125 187.925781 142.675781 C 187.828125 142.773438 187.710938 142.820312 187.574219 142.820312 C 187.4375 142.820312 187.324219 142.773438 187.226562 142.675781 C 187.128906 142.578125 187.082031 142.464844 187.082031 142.328125 C 187.082031 142.191406 187.128906 142.074219 187.226562 141.980469 C 187.324219 141.882812 187.4375 141.835938 187.574219 141.835938 Z M 180.933594 143.8125 C 181.085938 143.8125 181.21875 143.867188 181.328125 143.972656 C 181.4375 144.082031 181.492188 144.214844 181.492188 144.367188 C 181.492188 144.519531 181.4375 144.648438 181.328125 144.757812 C 181.21875 144.867188 181.085938 144.921875 180.933594 144.921875 C 180.78125 144.921875 180.648438 144.867188 180.539062 144.757812 C 180.429688 144.648438 180.378906 144.519531 180.378906 144.367188 C 180.378906 144.214844 180.429688 144.082031 180.539062 143.972656 C 180.648438 143.867188 180.78125 143.8125 180.933594 143.8125 Z M 184.332031 144.121094 L 190.984375 144.121094 C 191.121094 144.121094 191.226562 144.261719 191.226562 144.429688 C 191.226562 144.601562 191.121094 144.738281 190.984375 144.738281 L 184.332031 144.738281 C 184.195312 144.738281 184.089844 144.601562 184.089844 144.429688 C 184.089844 144.261719 184.195312 144.121094 184.332031 144.121094 Z M 171.539062 147.53125 L 203.609375 147.53125 L 203.609375 195.804688 L 171.539062 195.804688 Z M 187.574219 196.925781 C 187.898438 196.925781 188.210938 196.984375 188.511719 197.109375 C 188.808594 197.234375 189.074219 197.410156 189.304688 197.636719 C 189.53125 197.863281 189.707031 198.128906 189.832031 198.425781 C 189.957031 198.722656 190.019531 199.035156 190.019531 199.359375 C 190.019531 199.679688 189.957031 199.992188 189.832031 200.289062 C 189.707031 200.585938 189.53125 200.851562 189.304688 201.078125 C 189.074219 201.308594 188.808594 201.484375 188.511719 201.605469 C 188.210938 201.730469 187.898438 201.792969 187.574219 201.792969 C 187.25 201.792969 186.941406 201.730469 186.640625 201.605469 C 186.339844 201.484375 186.078125 201.308594 185.847656 201.078125 C 185.617188 200.851562 185.441406 200.585938 185.320312 200.289062 C 185.195312 199.992188 185.132812 199.679688 185.132812 199.359375 C 185.132812 199.035156 185.195312 198.722656 185.320312 198.425781 C 185.441406 198.128906 185.617188 197.863281 185.847656 197.636719 C 186.078125 197.410156 186.339844 197.234375 186.640625 197.109375 C 186.941406 196.984375 187.25 196.925781 187.574219 196.925781 Z M 187.574219 196.925781 " fill-opacity="1" fill-rule="nonzero"/></g><g fill="#ffffff" fill-opacity="1"><g transform="translate(94.851561, 251.430072)"><g><path d="M 8.609375 -9.25 L 8.609375 -12.953125 L 15.265625 -12.953125 L 15.265625 -4.390625 C 15.265625 -1.222656 13.773438 0.359375 10.796875 0.359375 L 6.265625 0.359375 C 3.285156 0.359375 1.796875 -1.222656 1.796875 -4.390625 L 1.796875 -18.90625 C 1.796875 -22.070312 3.285156 -23.65625 6.265625 -23.65625 L 10.796875 -23.65625 C 13.773438 -23.65625 15.265625 -22.070312 15.265625 -18.90625 L 15.265625 -16.703125 L 10.46875 -16.703125 L 10.46875 -19.515625 C 10.46875 -19.703125 10.398438 -19.867188 10.265625 -20.015625 C 10.140625 -20.160156 9.984375 -20.234375 9.796875 -20.234375 L 7.53125 -20.234375 C 7.332031 -20.234375 7.164062 -20.160156 7.03125 -20.015625 C 6.90625 -19.867188 6.84375 -19.703125 6.84375 -19.515625 L 6.84375 -3.8125 C 6.84375 -3.625 6.90625 -3.457031 7.03125 -3.3125 C 7.164062 -3.164062 7.332031 -3.09375 7.53125 -3.09375 L 9.796875 -3.09375 C 9.984375 -3.09375 10.140625 -3.164062 10.265625 -3.3125 C 10.398438 -3.457031 10.46875 -3.625 10.46875 -3.8125 L 10.46875 -9.25 Z M 8.609375 -9.25 "/></g></g></g><g fill="#ffffff" fill-opacity="1"><g transform="translate(111.08759, 251.430072)"><g><path d="M 10.109375 -23.296875 L 15.15625 -23.296875 L 15.15625 -4.390625 C 15.15625 -1.222656 13.664062 0.359375 10.6875 0.359375 L 6.234375 0.359375 C 3.253906 0.359375 1.765625 -1.222656 1.765625 -4.390625 L 1.765625 -23.296875 L 6.796875 -23.296875 L 6.796875 -3.953125 C 6.796875 -3.765625 6.863281 -3.597656 7 -3.453125 C 7.132812 -3.304688 7.296875 -3.234375 7.484375 -3.234375 L 9.4375 -3.234375 C 9.625 -3.234375 9.78125 -3.304688 9.90625 -3.453125 C 10.039062 -3.597656 10.109375 -3.765625 10.109375 -3.953125 Z M 10.109375 -23.296875 "/></g></g></g><g fill="#ffffff" fill-opacity="1"><g transform="translate(127.899624, 251.430072)"><g><path d="M 6.84375 -9.546875 L 6.84375 0 L 1.796875 0 L 1.796875 -23.296875 L 10.765625 -23.296875 C 13.742188 -23.296875 15.234375 -21.710938 15.234375 -18.546875 L 15.234375 -15.84375 C 15.234375 -13.914062 14.546875 -12.691406 13.171875 -12.171875 C 14.367188 -11.734375 14.96875 -10.75 14.96875 -9.21875 L 14.96875 0 L 9.9375 0 L 9.9375 -8.8125 C 9.9375 -9.300781 9.707031 -9.546875 9.25 -9.546875 Z M 6.84375 -19.875 L 6.84375 -13.0625 L 9.5 -13.0625 C 9.695312 -13.0625 9.859375 -13.132812 9.984375 -13.28125 C 10.117188 -13.425781 10.1875 -13.59375 10.1875 -13.78125 L 10.1875 -19.15625 C 10.1875 -19.34375 10.117188 -19.507812 9.984375 -19.65625 C 9.859375 -19.800781 9.695312 -19.875 9.5 -19.875 Z M 6.84375 -19.875 "/></g></g></g><g fill="#ffffff" fill-opacity="1"><g transform="translate(144.567657, 251.430072)"><g><path d="M 10.109375 -23.296875 L 15.15625 -23.296875 L 15.15625 -4.390625 C 15.15625 -1.222656 13.664062 0.359375 10.6875 0.359375 L 6.234375 0.359375 C 3.253906 0.359375 1.765625 -1.222656 1.765625 -4.390625 L 1.765625 -23.296875 L 6.796875 -23.296875 L 6.796875 -3.953125 C 6.796875 -3.765625 6.863281 -3.597656 7 -3.453125 C 7.132812 -3.304688 7.296875 -3.234375 7.484375 -3.234375 L 9.4375 -3.234375 C 9.625 -3.234375 9.78125 -3.304688 9.90625 -3.453125 C 10.039062 -3.597656 10.109375 -3.765625 10.109375 -3.953125 Z M 10.109375 -23.296875 "/></g></g></g><g fill="#ffffff" fill-opacity="1"><g transform="translate(161.37969, 251.430072)"><g/></g></g><g fill="#ffffff" fill-opacity="1"><g transform="translate(168.6517, 251.430072)"><g><path d="M 6.796875 0 L 1.765625 0 L 1.765625 -18.90625 C 1.765625 -22.070312 3.253906 -23.65625 6.234375 -23.65625 L 8.890625 -23.65625 C 10.640625 -23.65625 11.890625 -23.078125 12.640625 -21.921875 C 13.335938 -23.078125 14.582031 -23.65625 16.375 -23.65625 L 19.046875 -23.65625 C 22.023438 -23.65625 23.515625 -22.070312 23.515625 -18.90625 L 23.515625 0 L 18.46875 0 L 18.46875 -19.328125 C 18.46875 -19.523438 18.398438 -19.691406 18.265625 -19.828125 C 18.140625 -19.972656 17.976562 -20.046875 17.78125 -20.046875 L 15.84375 -20.046875 C 15.644531 -20.046875 15.476562 -19.972656 15.34375 -19.828125 C 15.21875 -19.691406 15.15625 -19.523438 15.15625 -19.328125 L 15.15625 0 L 10.109375 0 L 10.109375 -19.328125 C 10.109375 -19.523438 10.039062 -19.691406 9.90625 -19.828125 C 9.78125 -19.972656 9.625 -20.046875 9.4375 -20.046875 L 7.484375 -20.046875 C 7.296875 -20.046875 7.132812 -19.972656 7 -19.828125 C 6.863281 -19.691406 6.796875 -19.523438 6.796875 -19.328125 Z M 6.796875 0 "/></g></g></g><g fill="#ffffff" fill-opacity="1"><g transform="translate(193.815746, 251.430072)"><g><path d="M 15.515625 -18.90625 L 15.515625 -4.390625 C 15.515625 -1.222656 14.023438 0.359375 11.046875 0.359375 L 6.265625 0.359375 C 3.285156 0.359375 1.796875 -1.222656 1.796875 -4.390625 L 1.796875 -18.90625 C 1.796875 -22.070312 3.285156 -23.65625 6.265625 -23.65625 L 11.046875 -23.65625 C 14.023438 -23.65625 15.515625 -22.070312 15.515625 -18.90625 Z M 10.46875 -3.8125 L 10.46875 -19.515625 C 10.46875 -19.703125 10.398438 -19.867188 10.265625 -20.015625 C 10.140625 -20.160156 9.984375 -20.234375 9.796875 -20.234375 L 7.53125 -20.234375 C 7.332031 -20.234375 7.164062 -20.160156 7.03125 -20.015625 C 6.90625 -19.867188 6.84375 -19.703125 6.84375 -19.515625 L 6.84375 -3.8125 C 6.84375 -3.625 6.90625 -3.457031 7.03125 -3.3125 C 7.164062 -3.164062 7.332031 -3.09375 7.53125 -3.09375 L 9.796875 -3.09375 C 9.984375 -3.09375 10.140625 -3.164062 10.265625 -3.3125 C 10.398438 -3.457031 10.46875 -3.625 10.46875 -3.8125 Z M 10.46875 -3.8125 "/></g></g></g><g fill="#ffffff" fill-opacity="1"><g transform="translate(211.239775, 251.430072)"><g><path d="M 13.171875 -12.75 C 14.734375 -12.195312 15.515625 -10.921875 15.515625 -8.921875 L 15.515625 -4.75 C 15.515625 -1.582031 14.023438 0 11.046875 0 L 1.796875 0 L 1.796875 -23.296875 L 10.765625 -23.296875 C 13.742188 -23.296875 15.234375 -21.710938 15.234375 -18.546875 L 15.234375 -16.421875 C 15.234375 -14.492188 14.546875 -13.269531 13.171875 -12.75 Z M 9.5 -19.875 L 6.84375 -19.875 L 6.84375 -13.640625 L 9.5 -13.640625 C 9.695312 -13.640625 9.859375 -13.710938 9.984375 -13.859375 C 10.117188 -14.003906 10.1875 -14.171875 10.1875 -14.359375 L 10.1875 -19.15625 C 10.1875 -19.34375 10.117188 -19.507812 9.984375 -19.65625 C 9.859375 -19.800781 9.695312 -19.875 9.5 -19.875 Z M 10.46875 -4.171875 L 10.46875 -9.390625 C 10.46875 -9.585938 10.398438 -9.753906 10.265625 -9.890625 C 10.140625 -10.035156 9.984375 -10.109375 9.796875 -10.109375 L 6.84375 -10.109375 L 6.84375 -3.453125 L 9.796875 -3.453125 C 9.984375 -3.453125 10.140625 -3.523438 10.265625 -3.671875 C 10.398438 -3.816406 10.46875 -3.984375 10.46875 -4.171875 Z M 10.46875 -4.171875 "/></g></g></g><g fill="#ffffff" fill-opacity="1"><g transform="translate(228.411805, 251.430072)"><g><path d="M 6.84375 -23.296875 L 6.84375 0 L 1.796875 0 L 1.796875 -23.296875 Z M 6.84375 -23.296875 "/></g></g></g><g fill="#ffffff" fill-opacity="1"><g transform="translate(237.19582, 251.430072)"><g><path d="M 6.84375 -4.25 L 12.34375 -4.25 L 12.34375 0 L 1.796875 0 L 1.796875 -23.296875 L 6.84375 -23.296875 Z M 6.84375 -4.25 "/></g></g></g><g fill="#ffffff" fill-opacity="1"><g transform="translate(250.119849, 251.430072)"><g><path d="M 6.84375 -4.171875 L 12.421875 -4.171875 L 12.421875 0 L 1.796875 0 L 1.796875 -23.296875 L 12.421875 -23.296875 L 12.421875 -19.1875 L 6.84375 -19.1875 L 6.84375 -13.71875 L 12.0625 -13.71875 L 12.0625 -9.75 L 6.84375 -9.75 Z M 6.84375 -4.171875 "/></g></g></g><g fill="#ffffff" fill-opacity="1"><g transform="translate(263.655875, 251.430072)"><g><path d="M 14.71875 -17.171875 L 9.9375 -17.171875 L 9.9375 -19.015625 C 9.9375 -19.203125 9.867188 -19.367188 9.734375 -19.515625 C 9.609375 -19.660156 9.445312 -19.734375 9.25 -19.734375 L 7.265625 -19.734375 C 7.078125 -19.734375 6.914062 -19.660156 6.78125 -19.515625 C 6.65625 -19.367188 6.59375 -19.203125 6.59375 -19.015625 L 6.59375 -14.875 C 6.59375 -14.675781 6.65625 -14.503906 6.78125 -14.359375 C 6.914062 -14.210938 7.078125 -14.140625 7.265625 -14.140625 L 10.515625 -14.140625 C 13.484375 -14.097656 14.96875 -12.515625 14.96875 -9.390625 L 14.96875 -4.390625 C 14.96875 -1.222656 13.484375 0.359375 10.515625 0.359375 L 6.265625 0.359375 C 3.285156 0.359375 1.796875 -1.222656 1.796875 -4.390625 L 1.796875 -6.796875 L 6.59375 -6.796875 L 6.59375 -4.21875 C 6.59375 -4.019531 6.65625 -3.847656 6.78125 -3.703125 C 6.914062 -3.554688 7.078125 -3.484375 7.265625 -3.484375 L 9.5 -3.484375 C 9.695312 -3.484375 9.859375 -3.554688 9.984375 -3.703125 C 10.117188 -3.847656 10.1875 -4.019531 10.1875 -4.21875 L 10.1875 -8.78125 C 10.1875 -8.976562 10.117188 -9.144531 9.984375 -9.28125 C 9.859375 -9.425781 9.695312 -9.5 9.5 -9.5 L 6.265625 -9.5 C 3.285156 -9.5 1.796875 -11.082031 1.796875 -14.25 L 1.796875 -18.90625 C 1.796875 -22.070312 3.285156 -23.65625 6.265625 -23.65625 L 10.265625 -23.65625 C 13.234375 -23.65625 14.71875 -22.070312 14.71875 -18.90625 Z M 14.71875 -17.171875 "/></g></g></g></svg>